<?xml version="1.0" encoding="UTF-8"?>
<svg version="1.1" xmlns="http://www.w3.org/2000/svg" width="125" height="125">
<path d="M0 0 C0.60802963 0.22400986 1.21605927 0.44801971 1.84251404 0.67881775 C3.79744225 1.40124689 5.74839446 2.1337564 7.69921875 2.8671875 C9.04510113 3.3681503 10.39113065 3.86871795 11.73730469 4.36889648 C15.62437765 5.81630835 19.50578554 7.27839457 23.38671875 8.7421875 C24.41780762 9.12874512 25.44889648 9.51530273 26.51123047 9.91357422 C29.05610324 10.86952309 31.59745348 11.83395731 34.13671875 12.8046875 C34.86157471 13.07877441 35.58643066 13.35286133 36.33325195 13.63525391 C39.1789331 14.74032499 41.20302543 15.55849418 43.38671875 17.7421875 C43.51171875 20.3671875 43.51171875 20.3671875 43.38671875 22.7421875 C34.21152077 26.48427776 24.92020872 29.7956728 15.5546875 33.02539062 C13.68728955 33.67179761 11.82172547 34.32352613 9.95800781 34.98046875 C7.23773906 35.9391033 4.51227887 36.88138005 1.78515625 37.8203125 C0.54891006 38.26083954 0.54891006 38.26083954 -0.71231079 38.71026611 C-8.52822678 41.36242119 -14.55617558 41.4785542 -22.484375 38.66015625 C-23.71736328 38.22251953 -24.95035156 37.78488281 -26.22070312 37.33398438 C-26.84904053 37.10316162 -27.47737793 36.87233887 -28.12475586 36.63452148 C-30.06466608 35.92460631 -32.01267513 35.24157063 -33.96289062 34.56054688 C-41.04824289 32.00474577 -41.04824289 32.00474577 -43.61328125 30.7421875 C-43.94328125 29.7521875 -44.27328125 28.7621875 -44.61328125 27.7421875 C-40.32328125 26.4221875 -36.03328125 25.1021875 -31.61328125 23.7421875 C-32.92683594 24.0309375 -34.24039063 24.3196875 -35.59375 24.6171875 C-37.32936895 24.99245646 -39.06504929 25.36744158 -40.80078125 25.7421875 C-41.66509766 25.93296875 -42.52941406 26.12375 -43.41992188 26.3203125 C-44.6815918 26.59101562 -44.6815918 26.59101562 -45.96875 26.8671875 C-46.73856201 27.03476562 -47.50837402 27.20234375 -48.30151367 27.375 C-50.77388372 27.76769665 -53.11403934 27.80404035 -55.61328125 27.7421875 C-55.4725181 29.7008918 -55.32551365 31.65914843 -55.17578125 33.6171875 C-55.05396484 35.25300781 -55.05396484 35.25300781 -54.9296875 36.921875 C-54.78326422 39.68947721 -54.78326422 39.68947721 -53.61328125 41.7421875 C-53.38521564 46.98769648 -53.38521564 46.98769648 -54.18359375 49.62890625 C-54.86891973 52.99946402 -53.80142446 55.91888341 -52.98828125 59.20703125 C-52.61328125 61.7421875 -52.61328125 61.7421875 -53.61328125 66.7421875 C-57.24328125 66.7421875 -60.87328125 66.7421875 -64.61328125 66.7421875 C-65.55087886 62.05419943 -65.47485337 59.90121077 -64.61328125 55.3671875 C-63.762745 50.39352188 -63.63210749 46.64805632 -64.61328125 41.7421875 C-64.28328125 41.0821875 -63.95328125 40.4221875 -63.61328125 39.7421875 C-63.33462239 36.17270021 -63.16599646 32.60337071 -62.9921875 29.02734375 C-62.61328125 25.7421875 -62.61328125 25.7421875 -60.61328125 22.7421875 C-57.79296875 21.79296875 -57.79296875 21.79296875 -54.48828125 21.0546875 C-53.39257812 20.80332031 -52.296875 20.55195313 -51.16796875 20.29296875 C-50.32492188 20.11121094 -49.481875 19.92945312 -48.61328125 19.7421875 C-50.36419144 19.82973301 -52.11407676 19.93792123 -53.86328125 20.0546875 C-54.8378125 20.11269531 -55.81234375 20.17070312 -56.81640625 20.23046875 C-59.89693599 20.79408522 -61.17330429 21.88092302 -63.61328125 23.7421875 C-64.60328125 23.4121875 -65.59328125 23.0821875 -66.61328125 22.7421875 C-66.92578125 20.4296875 -66.92578125 20.4296875 -66.61328125 17.7421875 C-62.92926373 15.09609138 -58.92098384 13.60214439 -54.6875 12.03515625 C-54.02224808 11.78727859 -53.35699615 11.53940094 -52.67158508 11.28401184 C-50.54968809 10.49455266 -48.42533691 9.71195979 -46.30078125 8.9296875 C-44.22568783 8.16000853 -42.15111539 7.38894141 -40.07669067 6.61746216 C-38.69106475 6.10382619 -37.30439968 5.59298491 -35.91671753 5.08493042 C-32.33667839 3.77165551 -28.78189359 2.41748232 -25.24853516 0.98291016 C-24.53711868 0.69982498 -23.82570221 0.41673981 -23.09272766 0.12507629 C-21.7460493 -0.41239461 -20.40423196 -0.96228611 -19.06877136 -1.52705383 C-12.13834831 -4.26199997 -6.72689186 -2.50095477 0 0 Z M-43.61328125 17.7421875 C-43.61328125 18.0721875 -43.61328125 18.4021875 -43.61328125 18.7421875 C-41.63328125 18.7421875 -39.65328125 18.7421875 -37.61328125 18.7421875 C-37.61328125 18.4121875 -37.61328125 18.0821875 -37.61328125 17.7421875 C-39.59328125 17.7421875 -41.57328125 17.7421875 -43.61328125 17.7421875 Z " fill="#19C0EB" transform="translate(73.61328125,10.2578125)"/>
<path d="M0 0 C1.77074917 -0.02705729 3.54161711 -0.04642195 5.3125 -0.0625 C6.29863281 -0.07410156 7.28476562 -0.08570312 8.30078125 -0.09765625 C11 0 11 0 14 1 C13.89300781 1.75023438 13.78601562 2.50046875 13.67578125 3.2734375 C12.71248573 11.4977025 12.88873694 18.13970257 17.4453125 25.2578125 C21.91189285 30.88778122 27.19734535 33.8837073 34.16796875 35.50390625 C36.48082257 36.13020142 37.40275332 37.25754907 39 39 C41.86608129 40.43304064 43.81300783 40.30644155 47 40 C53.29532095 36.98919433 56.86628377 31.4532976 61 26 C61.8515315 24.9000084 62.7044462 23.80108646 63.55859375 22.703125 C67.13433532 18.09607266 70.69884938 13.49802627 74 8.6875 C74.66 7.800625 75.32 6.91375 76 6 C76.66 6 77.32 6 78 6 C78.74749952 17.89770064 76.53132333 26.85733887 68.77734375 36.0703125 C62.46395492 42.92484894 53.61353729 48.65516035 44.12109375 49.23828125 C31.2414263 49.54474279 21.853448 47.89063708 12 39 C3.69504738 30.81393218 -0.98544633 21.59896431 -1.1875 9.8125 C-1.02223059 6.4520219 -0.65910982 3.2955491 0 0 Z " fill="#298D1F" transform="translate(24,66)"/>
<path d="M0 0 C-1.32 0.99 -2.64 1.98 -4 3 C-3.34 4.98 -2.68 6.96 -2 9 C-1.38253906 8.9278125 -0.76507813 8.855625 -0.12890625 8.78125 C5.62108387 8.1511141 11.21646559 7.90671719 17 8 C16 10 16 10 12.9375 11.0625 C8.99127849 12.10227206 5.05422323 12.57323966 1 13 C2.16277032 14.39156484 2.16277032 14.39156484 5.37890625 14.09765625 C6.77347077 14.09098369 8.16801743 14.07902532 9.5625 14.0625 C10.27341797 14.05798828 10.98433594 14.05347656 11.71679688 14.04882812 C13.47790013 14.03700864 15.23896036 14.01907263 17 14 C13.97060499 16.41445371 11.86695903 17.46292236 8 18 C8 18.66 8 19.32 8 20 C8.72703125 20.27585937 9.4540625 20.55171875 10.203125 20.8359375 C13 22 13 22 15.296875 23.2890625 C25.56690111 28.88197481 36.78648117 27.79064044 48 26 C44.69874868 29.30125132 40.24126041 30.16562492 35.875 31.625 C34.94945313 31.94984375 34.02390625 32.2746875 33.0703125 32.609375 C22.04332797 36.31618618 15.29980916 34.86391085 4.48852539 30.89233398 C2.54861517 30.18241881 0.60060612 29.49938313 -1.34960938 28.81835938 C-8.43496164 26.26255827 -8.43496164 26.26255827 -11 25 C-11.33 24.01 -11.66 23.02 -12 22 C-7.71 20.68 -3.42 19.36 1 18 C-0.31355469 18.28875 -1.62710938 18.5775 -2.98046875 18.875 C-4.7160877 19.25026896 -6.45176804 19.62525408 -8.1875 20 C-9.05181641 20.19078125 -9.91613281 20.3815625 -10.80664062 20.578125 C-12.06831055 20.84882812 -12.06831055 20.84882812 -13.35546875 21.125 C-14.12528076 21.29257812 -14.89509277 21.46015625 -15.68823242 21.6328125 C-18.16060247 22.02550915 -20.50075809 22.06185285 -23 22 C-22.85923685 23.9587043 -22.7122324 25.91696093 -22.5625 27.875 C-22.44068359 29.51082031 -22.44068359 29.51082031 -22.31640625 31.1796875 C-22.16998297 33.94728971 -22.16998297 33.94728971 -21 36 C-20.77193439 41.24550898 -20.77193439 41.24550898 -21.5703125 43.88671875 C-22.25563848 47.25727652 -21.18814321 50.17669591 -20.375 53.46484375 C-20 56 -20 56 -21 61 C-24.63 61 -28.26 61 -32 61 C-32.93759761 56.31201193 -32.86157212 54.15902327 -32 49.625 C-31.14946375 44.65133438 -31.01882624 40.90586882 -32 36 C-31.67 35.34 -31.34 34.68 -31 34 C-30.72134114 30.43051271 -30.55271521 26.86118321 -30.37890625 23.28515625 C-30 20 -30 20 -28 17 C-25.1796875 16.05078125 -25.1796875 16.05078125 -21.875 15.3125 C-20.77929688 15.06113281 -19.68359375 14.80976563 -18.5546875 14.55078125 C-17.71164063 14.36902344 -16.86859375 14.18726563 -16 14 C-17.75091019 14.08754551 -19.50079551 14.19573373 -21.25 14.3125 C-22.22453125 14.37050781 -23.1990625 14.42851562 -24.203125 14.48828125 C-27.28365474 15.05189772 -28.56002304 16.13873552 -31 18 C-31.99 17.67 -32.98 17.34 -34 17 C-34.3125 14.6875 -34.3125 14.6875 -34 12 C-28.4186944 8.03067245 -21.68438829 6.10085821 -15.3125 3.75 C-14.05132612 3.27371854 -12.79025735 2.79715866 -11.52929688 2.3203125 C-10.34013672 1.87945313 -9.15097656 1.43859375 -7.92578125 0.984375 C-6.83692627 0.57928711 -5.74807129 0.17419922 -4.6262207 -0.24316406 C-2 -1 -2 -1 0 0 Z M-11 12 C-11 12.33 -11 12.66 -11 13 C-9.02 13 -7.04 13 -5 13 C-5 12.67 -5 12.34 -5 12 C-6.98 12 -8.96 12 -11 12 Z " fill="#1882DF" transform="translate(41,16)"/>
<path d="M0 0 C2.30097656 0.7940625 4.60195313 1.588125 6.97265625 2.40625 C9.21910989 3.1732976 11.46678076 3.9366708 13.71459961 4.69970703 C15.26864319 5.22941015 16.82140623 5.76288647 18.37280273 6.30029297 C20.61110542 7.07489659 22.85375817 7.83553115 25.09765625 8.59375 C25.78336197 8.83436157 26.46906769 9.07497314 27.17555237 9.32287598 C34.43684569 11.7452456 39.7913028 11.38957641 46.921875 8.8125 C47.86187347 8.47955933 47.86187347 8.47955933 48.82086182 8.13989258 C50.80110101 7.43687832 52.77567204 6.71942985 54.75 6 C56.73931074 5.28282773 58.72966234 4.56887076 60.72198486 3.86010742 C62.51984928 3.21940419 64.31422578 2.56893846 66.10839844 1.91796875 C69 1 69 1 72 1 C72.97857792 6.19931301 73.11840012 10.26587852 70.18359375 14.81640625 C63.92054801 21.23244242 58.07166158 23.37961997 49.37158203 24.73608398 C44.19382236 25.54662906 41.25859173 26.963605 37 30 C34.5 29.4375 34.5 29.4375 32 28 C23.56249616 23.17856923 14.17758427 22.80107209 4.65234375 22.24609375 C2 22 2 22 0 21 C0 14.07 0 7.14 0 0 Z " fill="#0B69E7" transform="translate(26,42)"/>
<path d="M0 0 C0.57234375 0.226875 1.1446875 0.45375 1.734375 0.6875 C1.45117148 6.27532322 -2.16177415 9.5933878 -5.640625 13.625 C-6.92706739 15.14995762 -8.21220807 16.67601422 -9.49609375 18.203125 C-10.13595215 18.96044922 -10.77581055 19.71777344 -11.43505859 20.49804688 C-14.0064659 23.57358445 -16.48957534 26.71281826 -18.953125 29.875 C-19.39084229 30.43509766 -19.82855957 30.99519531 -20.27954102 31.57226562 C-21.60977761 33.27614762 -22.93776651 34.98176433 -24.265625 36.6875 C-41.20795687 58.41314425 -41.20795687 58.41314425 -46.078125 59.0625 C-52.13787609 58.34958811 -56.02447471 51.76057003 -59.828125 47.25 C-60.29669922 46.70279297 -60.76527344 46.15558594 -61.24804688 45.59179688 C-69.32726716 36.04362745 -69.32726716 36.04362745 -69.140625 31.9375 C-68.265625 29.6875 -68.265625 29.6875 -66.265625 27.6875 C-61.97451721 27.14918899 -59.93421317 27.23321426 -56.31640625 29.69140625 C-55.41277344 30.53574219 -54.50914063 31.38007812 -53.578125 32.25 C-50.3953785 35.57711735 -50.3953785 35.57711735 -46.23828125 36.69921875 C-37.3114197 32.12088778 -29.76991806 23.52543189 -22.4921875 16.703125 C-18.82803352 13.26970054 -15.11232838 9.91583979 -11.265625 6.6875 C-10.49347656 6.02492188 -9.72132812 5.36234375 -8.92578125 4.6796875 C-8.13042969 4.02226563 -7.33507812 3.36484375 -6.515625 2.6875 C-5.79890625 2.089375 -5.0821875 1.49125 -4.34375 0.875 C-2.265625 -0.3125 -2.265625 -0.3125 0 0 Z " fill="#4EAD27" transform="translate(114.265625,45.3125)"/>
<path d="M0 0 C0.66 0 1.32 0 2 0 C2.74749952 11.89770064 0.53132333 20.85733887 -7.22265625 30.0703125 C-9.66784844 32.72509259 -12.04370127 34.91320089 -15 37 C-15.69480469 37.50015625 -16.38960937 38.0003125 -17.10546875 38.515625 C-22.31444158 41.7446783 -25.8916985 42.31984617 -31.9375 41.1875 C-43.29705355 38.14343663 -52.86515212 32.82475861 -59.1796875 22.8046875 C-59.45039062 22.20914063 -59.72109375 21.61359375 -60 21 C-59.67 20.34 -59.34 19.68 -59 19 C-58.46632812 19.54269531 -57.93265625 20.08539063 -57.3828125 20.64453125 C-52.55139611 25.28369405 -48.75420322 27.94077932 -42.1640625 29.33203125 C-39.68230939 30.09805974 -38.7112361 31.09362294 -37 33 C-34.13391871 34.43304064 -32.18699217 34.30644155 -29 34 C-22.70467905 30.98919433 -19.13371623 25.4532976 -15 20 C-14.1484685 18.9000084 -13.2955538 17.80108646 -12.44140625 16.703125 C-8.86566468 12.09607266 -5.30115062 7.49802627 -2 2.6875 C-1.34 1.800625 -0.68 0.91375 0 0 Z " fill="#5BB62C" transform="translate(100,72)"/>
<path d="M0 0 C0.57234375 0.226875 1.1446875 0.45375 1.734375 0.6875 C1.45118846 6.27498825 -2.1614446 9.59386488 -5.640625 13.625 C-6.91809775 15.13681274 -8.19411925 16.64985286 -9.46875 18.1640625 C-10.10748047 18.91977539 -10.74621094 19.67548828 -11.40429688 20.45410156 C-14.60748334 24.29758921 -17.66457629 28.25333114 -20.71240234 32.22045898 C-23.06065841 35.25151848 -25.487229 38.04354252 -28.265625 40.6875 C-27.65284888 37.72574877 -27.01189978 36.30691217 -25.265625 33.6875 C-24.605625 33.6875 -23.945625 33.6875 -23.265625 33.6875 C-23.05035156 33.00042969 -22.83507812 32.31335938 -22.61328125 31.60546875 C-20.87056688 27.83211329 -18.44043023 25.0948022 -15.703125 22 C-12.11642797 18.10144767 -12.11642797 18.10144767 -9.265625 13.6875 C-8.605625 13.6875 -7.945625 13.6875 -7.265625 13.6875 C-7.265625 13.0275 -7.265625 12.3675 -7.265625 11.6875 C-11.56041053 13.98014603 -14.73740993 16.95934022 -18.078125 20.4375 C-22.00771672 24.4480833 -25.97044977 28.31581729 -30.25 31.95703125 C-33.62185584 34.85186097 -36.88286242 37.87042582 -40.1640625 40.8671875 C-43.28346514 43.56912361 -45.66717577 44.19497137 -49.83203125 44.1796875 C-55.61242248 43.01061961 -61.14529882 38.80782618 -65.265625 34.6875 C-66.585625 34.6875 -67.905625 34.6875 -69.265625 34.6875 C-68.515625 29.9375 -68.515625 29.9375 -66.265625 27.6875 C-61.97451721 27.14918899 -59.93421317 27.23321426 -56.31640625 29.69140625 C-55.41277344 30.53574219 -54.50914063 31.38007812 -53.578125 32.25 C-50.3953785 35.57711735 -50.3953785 35.57711735 -46.23828125 36.69921875 C-37.3114197 32.12088778 -29.76991806 23.52543189 -22.4921875 16.703125 C-18.82803352 13.26970054 -15.11232838 9.91583979 -11.265625 6.6875 C-10.49347656 6.02492188 -9.72132812 5.36234375 -8.92578125 4.6796875 C-8.13042969 4.02226563 -7.33507812 3.36484375 -6.515625 2.6875 C-5.79890625 2.089375 -5.0821875 1.49125 -4.34375 0.875 C-2.265625 -0.3125 -2.265625 -0.3125 0 0 Z " fill="#A3DF4D" transform="translate(114.265625,45.3125)"/>
<path d="M0 0 C-2.64738916 1.4606285 -3.89448334 2 -7 2 C-7 2.66 -7 3.32 -7 4 C-6.27296875 4.27585937 -5.5459375 4.55171875 -4.796875 4.8359375 C-2 6 -2 6 0.296875 7.2890625 C10.56690111 12.88197481 21.78648117 11.79064044 33 10 C29.69874868 13.30125132 25.24126041 14.16562492 20.875 15.625 C19.94945312 15.94984375 19.02390625 16.2746875 18.0703125 16.609375 C7.04332797 20.31618618 0.29980916 18.86391085 -10.51147461 14.89233398 C-12.45138483 14.18241881 -14.39939388 13.49938313 -16.34960938 12.81835938 C-23.43496164 10.26255827 -23.43496164 10.26255827 -26 9 C-26.33 8.01 -26.66 7.02 -27 6 C-24.73050898 5.32844651 -22.4596039 4.6626037 -20.1875 4 C-18.29064453 3.443125 -18.29064453 3.443125 -16.35546875 2.875 C-13 2 -13 2 -10 2 C-9.67 1.34 -9.34 0.68 -9 0 C-5.65506316 -0.99444068 -3.31044803 -1.10348268 0 0 Z " fill="#107FDF" transform="translate(56,32)"/>
<path d="M0 0 C0.34631933 4.02225161 0.46014832 6.29153375 -1.7734375 9.73046875 C-8.3974011 15.98643437 -13.70473639 18.34754361 -22.62841797 19.73510742 C-27.71208562 20.53314439 -30.71138441 21.98843883 -35 25 C-37.875 24.25 -37.875 24.25 -40 23 C-39.34 22.67 -38.68 22.34 -38 22 C-37.87753906 21.05769531 -37.75507812 20.11539063 -37.62890625 19.14453125 C-37 16 -37 16 -35.33984375 14.19921875 C-26.08374279 8.3746479 -11.04139593 0 0 0 Z " fill="#1FA6E9" transform="translate(98,47)"/>
<path d="M0 0 C2.30097656 0.7940625 4.60195313 1.588125 6.97265625 2.40625 C9.21910989 3.1732976 11.46678076 3.9366708 13.71459961 4.69970703 C15.26864319 5.22941015 16.82140623 5.76288647 18.37280273 6.30029297 C20.61110542 7.07489659 22.85375817 7.83553115 25.09765625 8.59375 C25.78336197 8.83436157 26.46906769 9.07497314 27.17555237 9.32287598 C33.79882391 11.53240134 38.61155931 11.58990839 45 9 C47.14453125 9.44140625 47.14453125 9.44140625 49 10 C47.730447 10.64834654 46.45930294 11.29357815 45.1875 11.9375 C44.47980469 12.29714844 43.77210937 12.65679687 43.04296875 13.02734375 C35.14031567 16.78979235 27.3068367 14.8947422 19.25 12.5625 C17.60970248 12.10429482 15.96908623 11.64722881 14.328125 11.19140625 C13.57595703 10.98016113 12.82378906 10.76891602 12.04882812 10.55126953 C9.71697108 9.9238466 7.37777668 9.42046051 5 9 C5.17249973 15.23687536 5.17249973 15.23687536 8.0625 20.5625 C8.701875 21.036875 9.34125 21.51125 10 22 C2.25 22.125 2.25 22.125 0 21 C0 14.07 0 7.14 0 0 Z " fill="#0A3EB3" transform="translate(26,42)"/>
<path d="M0 0 C4.57961432 0.5035178 6.0899673 1.86304006 9.41796875 4.97265625 C12.633772 8.33958002 12.633772 8.33958002 16.84375 9.3828125 C19.6894091 7.9157957 21.68660092 5.8216077 23.94921875 3.58984375 C25.73046875 2.41015625 25.73046875 2.41015625 27.94921875 2.73046875 C28.8309375 3.06691406 28.8309375 3.06691406 29.73046875 3.41015625 C29.07046875 4.40015625 28.41046875 5.39015625 27.73046875 6.41015625 C27.73046875 7.40015625 27.73046875 8.39015625 27.73046875 9.41015625 C24.03147095 13.40884137 20.17107575 16.08485789 14.85546875 17.28515625 C8.4673123 16.71846495 2.13978414 11.81947164 -2.26953125 7.41015625 C-3.58953125 7.41015625 -4.90953125 7.41015625 -6.26953125 7.41015625 C-5.52262614 2.67975719 -5.15486834 0.64666807 0 0 Z " fill="#67C03C" transform="translate(51.26953125,72.58984375)"/>
<path d="M0 0 C0.33 0 0.66 0 1 0 C1.33 2.31 1.66 4.62 2 7 C4.31 7 6.62 7 9 7 C9.06058594 7.61746094 9.12117188 8.23492187 9.18359375 8.87109375 C9.26738281 9.71800781 9.35117187 10.56492187 9.4375 11.4375 C9.52644531 12.34242187 9.61539062 13.24734375 9.70703125 14.1796875 C9.98050374 16.81231602 10.29983836 19.43586963 10.625 22.0625 C10.74875 23.361875 10.8725 24.66125 11 26 C10 27 10 27 7.49609375 27.09765625 C6.48675781 27.08605469 5.47742188 27.07445313 4.4375 27.0625 C3.42558594 27.05347656 2.41367188 27.04445313 1.37109375 27.03515625 C0.58863281 27.02355469 -0.19382812 27.01195313 -1 27 C-2.10420821 22.87455545 -1.79292026 19.79774285 -1 15.625 C-0.14946375 10.65133438 -0.01882624 6.90586882 -1 2 C-0.67 1.34 -0.34 0.68 0 0 Z " fill="#0761E6" transform="translate(10,50)"/>
<path d="M0 0 C4.33448976 0.71141548 8.32268085 2.11296357 12.41796875 3.65234375 C13.1164241 3.91253799 13.81487946 4.17273224 14.53450012 4.44081116 C16.00346307 4.98944215 17.47168803 5.54005272 18.93920898 6.0925293 C21.18808361 6.93771934 23.44051476 7.77288048 25.69335938 8.60742188 C27.12262185 9.14262599 28.55166616 9.67841313 29.98046875 10.21484375 C30.99139839 10.58838234 30.99139839 10.58838234 32.02275085 10.96946716 C34.85516654 12.0440066 36.83212888 12.83212888 39 15 C39.125 17.625 39.125 17.625 39 20 C32.375 23.125 32.375 23.125 29 22 C29.66 22 30.32 22 31 22 C31.12815365 19.6147267 31.12815365 19.6147267 30 17 C27.32272547 15.36085233 24.8820158 14.21052681 22 13 C20.63576641 12.40060036 19.27257224 11.79883208 17.91015625 11.1953125 C13.94825937 9.44436843 9.976319 7.71792423 6 6 C6 5.34 6 4.68 6 4 C4.02 3.01 2.04 2.02 0 1 C0 0.67 0 0.34 0 0 Z " fill="#3CECE2" transform="translate(78,13)"/>
<path d="M0 0 C3.63 0 7.26 0 11 0 C10.01 0.495 10.01 0.495 9 1 C5.06752605 11.9495949 4.71624356 21.06813287 9.22265625 31.75 C9.47917969 32.4925 9.73570313 33.235 10 34 C9.67 34.66 9.34 35.32 9 36 C1.36481977 27.27407974 -1.56420582 17.47218507 -1 6 C-0.71325582 3.99279077 -0.39764263 1.98821313 0 0 Z " fill="#207420" transform="translate(24,66)"/>
<path d="M0 0 C0.99 0.33 1.98 0.66 3 1 C-1.11670553 5.91996514 -5.35763892 10.57175201 -10 15 C-10.68707031 15.65871094 -11.37414062 16.31742188 -12.08203125 16.99609375 C-12.77683594 17.63675781 -13.47164062 18.27742188 -14.1875 18.9375 C-14.82042969 19.52402344 -15.45335938 20.11054687 -16.10546875 20.71484375 C-18 22 -18 22 -22 22 C-21.01 20.515 -21.01 20.515 -20 19 C-20.66 18.34 -21.32 17.68 -22 17 C-21.25234375 16.39671875 -20.5046875 15.7934375 -19.734375 15.171875 C-18.74953125 14.37265625 -17.7646875 13.5734375 -16.75 12.75 C-15.77546875 11.96109375 -14.8009375 11.1721875 -13.796875 10.359375 C-11.03612314 8.10363512 -11.03612314 8.10363512 -8.83984375 5.80859375 C-6.50263892 3.51108667 -3.9521097 2.37765119 -1 1 C-0.67 0.67 -0.34 0.34 0 0 Z " fill="#83D835" transform="translate(100,57)"/>
<path d="M0 0 C0.95777344 0.36222656 1.91554687 0.72445313 2.90234375 1.09765625 C3.97162109 1.51337891 3.97162109 1.51337891 5.0625 1.9375 C5.0625 2.2675 5.0625 2.5975 5.0625 2.9375 C4.33248779 2.92178955 3.60247559 2.9060791 2.8503418 2.88989258 C-0.51635726 2.82682186 -3.88293137 2.78828286 -7.25 2.75 C-8.39791016 2.72486328 -9.54582031 2.69972656 -10.72851562 2.67382812 C-18.28396181 2.60961753 -24.77269713 3.51954941 -31.9375 5.9375 C-28.8791129 2.59406842 -25.35615299 1.25454839 -21.1875 -0.3125 C-20.15109375 -0.73402344 -20.15109375 -0.73402344 -19.09375 -1.1640625 C-12.15345731 -3.79928642 -6.86127434 -2.62591981 0 0 Z " fill="#39CEE3" transform="translate(72.9375,10.0625)"/>
<path d="M0 0 C0.33 0 0.66 0 1 0 C1.12375 1.093125 1.2475 2.18625 1.375 3.3125 C1.75464801 7.07381802 1.75464801 7.07381802 4 10 C3.94140625 12.84765625 3.94140625 12.84765625 3.5625 16.0625 C2.90014973 20.1768347 2.90014973 20.1768347 4 24 C6.52733235 24.65555119 6.52733235 24.65555119 9 25 C9.33 23.68 9.66 22.36 10 21 C10.38218767 22.65614657 10.71395102 24.32457024 11 26 C10 27 10 27 7.49609375 27.09765625 C6.48675781 27.08605469 5.47742188 27.07445313 4.4375 27.0625 C3.42558594 27.05347656 2.41367188 27.04445313 1.37109375 27.03515625 C0.58863281 27.02355469 -0.19382812 27.01195313 -1 27 C-2.10420821 22.87455545 -1.79292026 19.79774285 -1 15.625 C-0.14946375 10.65133438 -0.01882624 6.90586882 -1 2 C-0.67 1.34 -0.34 0.68 0 0 Z " fill="#143E9B" transform="translate(10,50)"/>
<path d="M0 0 C0.66 0 1.32 0 2 0 C2.69405059 11.04697185 0.74152757 20.09155286 -6 29 C-6.33 28.01 -6.66 27.02 -7 26 C-6.05047277 24.64353253 -5.09727612 23.28947437 -4.125 21.94921875 C-1.43096317 17.28142576 0 11.36632688 0 6 C-5.42287737 11.92658337 -10.81643758 17.86157082 -16 24 C-16.66 23.67 -17.32 23.34 -18 23 C-17.49210937 22.443125 -16.98421875 21.88625 -16.4609375 21.3125 C-11.078215 15.34513722 -6.07089193 9.2831649 -1.75 2.5 C-0.88375 1.2625 -0.88375 1.2625 0 0 Z " fill="#7DB84A" transform="translate(100,72)"/>
<path d="M0 0 C-1.89564426 0.79211929 -3.79152371 1.58367576 -5.6875 2.375 C-6.74324219 2.81585938 -7.79898438 3.25671875 -8.88671875 3.7109375 C-11.58356657 4.82757462 -14.28716264 5.92291801 -17 7 C-16.0022242 9.99332739 -15.2477975 10.94766315 -13 13 C-14.58468677 12.54636829 -16.16769924 12.08688548 -17.75 11.625 C-18.63171875 11.36976562 -19.5134375 11.11453125 -20.421875 10.8515625 C-22.76080572 10.0790066 -24.83442562 9.16374324 -27 8 C-27 7.34 -27 6.68 -27 6 C-24.73050898 5.32844651 -22.4596039 4.6626037 -20.1875 4 C-18.29064453 3.443125 -18.29064453 3.443125 -16.35546875 2.875 C-13 2 -13 2 -10 2 C-9.67 1.34 -9.34 0.68 -9 0 C-5.58777852 -1.01444422 -3.37896371 -0.95821359 0 0 Z " fill="#1C3E95" transform="translate(56,32)"/>
<path d="M0 0 C-2.77579761 2.77579761 -5.30306937 2.86061387 -9.125 3.625 C-10.40632813 3.88539062 -11.68765625 4.14578125 -13.0078125 4.4140625 C-13.99523437 4.60742188 -14.98265625 4.80078125 -16 5 C-16.11608726 8.27053517 -16.18720711 11.5405418 -16.25 14.8125 C-16.28351562 15.74126953 -16.31703125 16.67003906 -16.3515625 17.62695312 C-16.36445313 18.51962891 -16.37734375 19.41230469 -16.390625 20.33203125 C-16.41157227 21.15421143 -16.43251953 21.9763916 -16.45410156 22.82348633 C-16.18546317 25.19548009 -16.18546317 25.19548009 -13.97558594 26.79174805 C-13.32364258 27.19047119 -12.67169922 27.58919434 -12 28 C-13.99954746 28.04254356 -16.00041636 28.04080783 -18 28 C-20.35241929 25.64758071 -19.18542134 19.78456887 -19.1875 16.625 C-19.19974609 15.65304688 -19.21199219 14.68109375 -19.22460938 13.6796875 C-19.22654297 12.74640625 -19.22847656 11.813125 -19.23046875 10.8515625 C-19.23457764 9.99385254 -19.23868652 9.13614258 -19.24291992 8.25244141 C-19 6 -19 6 -17 3 C-14.35546875 2.05078125 -14.35546875 2.05078125 -11.1875 1.3125 C-10.14980469 1.06113281 -9.11210937 0.80976563 -8.04296875 0.55078125 C-5.27421455 0.04963319 -2.80344253 -0.10882124 0 0 Z " fill="#2178D2" transform="translate(30,30)"/>
<path d="M0 0 C0.4375 3.125 0.4375 3.125 0 7 C-2.04280126 9.41469584 -4.35760831 11.27008889 -7 13 C-7.33 13 -7.66 13 -8 13 C-8 9.7 -8 6.4 -8 3 C-2.25 0 -2.25 0 0 0 Z " fill="#38ECE5" transform="translate(98,47)"/>
<path d="M0 0 C0.66 0 1.32 0 2 0 C2.06058594 0.84304687 2.12117188 1.68609375 2.18359375 2.5546875 C2.26738281 3.65039062 2.35117187 4.74609375 2.4375 5.875 C2.51871094 6.96554688 2.59992187 8.05609375 2.68359375 9.1796875 C2.83001703 11.94728971 2.83001703 11.94728971 4 14 C4.039992 15.99960012 4.04346799 18.00047242 4 20 C1.0625 19.25 1.0625 19.25 -2 18 C-3 16 -3 16 -3 14 C-2.34 13.34 -1.68 12.68 -1 12 C-0.53603307 9.10776497 -0.53603307 9.10776497 -0.375 5.875 C-0.30023438 4.77929688 -0.22546875 3.68359375 -0.1484375 2.5546875 C-0.09945313 1.71164063 -0.05046875 0.86859375 0 0 Z " fill="#2790DD" transform="translate(16,38)"/>
<path d="M0 0 C0 0.66 0 1.32 0 2 C-7.59 4.97 -15.18 7.94 -23 11 C-23 10.01 -23 9.02 -23 8 C-19.44316852 5.24632402 -15.42702583 4.04780515 -11.18359375 2.74609375 C-8.9687159 2.04822531 -8.9687159 2.04822531 -6.89453125 0.91796875 C-4.50207715 -0.24126159 -2.62390307 -0.14577239 0 0 Z " fill="#0B7EE0" transform="translate(98,45)"/>
<path d="M0 0 C0.99 0.33 1.98 0.66 3 1 C2.32195312 1.78761719 1.64390625 2.57523438 0.9453125 3.38671875 C-5.63159066 11.06948341 -11.90911462 18.92726471 -18 27 C-18.33 26.01 -18.66 25.02 -19 24 C-17.6875 21.8125 -17.6875 21.8125 -16 20 C-15.34 20 -14.68 20 -14 20 C-13.78472656 19.31292969 -13.56945312 18.62585938 -13.34765625 17.91796875 C-11.60494188 14.14461329 -9.17480523 11.4073022 -6.4375 8.3125 C-2.85080297 4.41394767 -2.85080297 4.41394767 0 0 Z " fill="#7EBB3E" transform="translate(105,59)"/>
<path d="M0 0 C-0.33 0.66 -0.66 1.32 -1 2 C-4.74261686 3.24753895 -8.1736663 3.02153747 -12.0625 2.9375 C-18.60646322 2.85416395 -24.65010802 3.25260958 -31 5 C-30.67 4.01 -30.34 3.02 -30 2 C-20.0529464 -0.5035281 -10.17233107 -0.18974296 0 0 Z M-12 1 C-12 1.33 -12 1.66 -12 2 C-10.02 2 -8.04 2 -6 2 C-6 1.67 -6 1.34 -6 1 C-7.98 1 -9.96 1 -12 1 Z " fill="#2170C2" transform="translate(42,27)"/>
<path d="M0 0 C3.5382203 0.62341391 6.73293028 1.55321845 10.08203125 2.84765625 C11.01337891 3.20537109 11.94472656 3.56308594 12.90429688 3.93164062 C14.34385742 4.49141602 14.34385742 4.49141602 15.8125 5.0625 C16.79154297 5.43955078 17.77058594 5.81660156 18.77929688 6.20507812 C21.1876001 7.13315595 23.59441614 8.06490116 26 9 C22.18044028 10.25654361 20.47816032 9.41923835 16.875 7.6953125 C13.96143524 6.61486557 11.07221651 6.93976046 8 7 C6.66666667 5.66666667 5.33333333 4.33333333 4 3 C2.68252676 2.30251417 1.35085807 1.63040043 0 1 C0 0.67 0 0.34 0 0 Z " fill="#56E2D9" transform="translate(78,13)"/>
<path d="M0 0 C0 0.33 0 0.66 0 1 C-1.43655854 1.08131463 -2.8744483 1.13933559 -4.3125 1.1875 C-5.51326172 1.23970703 -5.51326172 1.23970703 -6.73828125 1.29296875 C-9.53148814 0.93115439 -10.1022596 -0.01997275 -12 -2 C-17.15031625 -2.34335442 -21.9228077 -1.84619872 -27 -1 C-17.56689221 -7.28873853 -9.73878658 -3.78632751 0 0 Z " fill="#61DFD8" transform="translate(78,12)"/>
<path d="M0 0 C-1 2 -1 2 -4.0625 3.125 C-8.16946345 4.18349573 -11.76682703 4.35276441 -16 4 C-17.734375 2.48046875 -17.734375 2.48046875 -19 1 C-12.62694402 0.25492456 -6.41688675 -0.10349817 0 0 Z " fill="#2AA5D9" transform="translate(58,24)"/>
<path d="M0 0 C0 0.66 0 1.32 0 2 C-2.13868881 2.71289627 -4.2775983 3.42497345 -6.41796875 4.1328125 C-8.09259277 4.69524296 -9.76233037 5.2725239 -11.42578125 5.8671875 C-15.39595532 7.26842541 -18.72031246 8.41416331 -23 8 C-20.88659536 5.88659536 -19.75014354 5.41564875 -16.97265625 4.4921875 C-16.18052734 4.22792969 -15.38839844 3.96367188 -14.57226562 3.69140625 C-13.32993164 3.28728516 -13.32993164 3.28728516 -12.0625 2.875 C-11.23814453 2.59785156 -10.41378906 2.32070313 -9.56445312 2.03515625 C-3.39381927 0 -3.39381927 0 0 0 Z " fill="#1A59A3" transform="translate(98,43)"/>
<path d="M0 0 C0.99 0 1.98 0 3 0 C4.19287411 3.87684087 5 6.91621923 5 11 C1.125 10.125 1.125 10.125 0 9 C-0.07179964 7.48071962 -0.08392007 5.95832518 -0.0625 4.4375 C-0.05347656 3.61121094 -0.04445313 2.78492188 -0.03515625 1.93359375 C-0.02355469 1.29550781 -0.01195312 0.65742187 0 0 Z " fill="#1D83E1" transform="translate(15,60)"/>
<path d="M0 0 C6.24723226 -0.82200425 10.71317837 2.07448606 16 5 C15.67 5.66 15.34 6.32 15 7 C9.57903298 5.64475824 4.9221313 3.63365987 0 1 C0 0.67 0 0.34 0 0 Z " fill="#29EFE9" transform="translate(87,19)"/>
<path d="M0 0 C0.56847656 0.144375 1.13695312 0.28875 1.72265625 0.4375 C8.76554594 2.13061538 14.16732439 2.77000363 21 0 C23.3125 0.375 23.3125 0.375 25 1 C18.92784372 5.20721615 12.5442171 4.81171512 5.44140625 3.54296875 C3.61142835 3.08955177 1.80194283 2.55444395 0 2 C0 1.34 0 0.68 0 0 Z " fill="#1D4D9D" transform="translate(50,51)"/>
<path d="M0 0 C0.40089844 0.38671875 0.80179688 0.7734375 1.21484375 1.171875 C5.75016436 5.32668119 10.27749121 7.79404423 16 10 C12.23331084 11.15404945 10.61098469 10.52041461 7 9 C6.01 9.495 6.01 9.495 5 10 C4.16121545 8.71186658 3.32913217 7.41936744 2.5 6.125 C2.0359375 5.40570313 1.571875 4.68640625 1.09375 3.9453125 C0 2 0 2 0 0 Z " fill="#509F36" transform="translate(40,91)"/>
<path d="M0 0 C0.71484375 1.734375 0.71484375 1.734375 1 4 C-0.43359375 6.140625 -0.43359375 6.140625 -2.4375 8.25 C-3.09621094 8.95640625 -3.75492187 9.6628125 -4.43359375 10.390625 C-4.95050781 10.92171875 -5.46742187 11.4528125 -6 12 C-6.33 11.34 -6.66 10.68 -7 10 C-7.66 9.67 -8.32 9.34 -9 9 C-8.43410156 8.51789062 -7.86820312 8.03578125 -7.28515625 7.5390625 C-6.55167969 6.90742187 -5.81820312 6.27578125 -5.0625 5.625 C-4.33160156 4.99851562 -3.60070312 4.37203125 -2.84765625 3.7265625 C-0.91619094 2.12252286 -0.91619094 2.12252286 0 0 Z " fill="#93D538" transform="translate(114,47)"/>
<path d="M0 0 C0 0.99 0 1.98 0 3 C-1.44797122 4.2505206 -2.90414202 5.49412615 -4.41796875 6.6640625 C-6.23066143 8.09354945 -6.23066143 8.09354945 -8.0625 10.75 C-10.32791582 13.38080547 -11.60410902 13.71700909 -15 14 C-10.2347969 9.0759568 -5.11342667 4.55740358 0 0 Z " fill="#93CB59" transform="translate(93,61)"/>
<path d="M0 0 C-1.91282125 0.84212256 -3.83042473 1.67338864 -5.75 2.5 C-7.35101563 3.19609375 -7.35101563 3.19609375 -8.984375 3.90625 C-12 5 -12 5 -16 5 C-16 4.34 -16 3.68 -16 3 C-14.5459375 2.814375 -14.5459375 2.814375 -13.0625 2.625 C-11.5465625 2.315625 -11.5465625 2.315625 -10 2 C-9.67 1.34 -9.34 0.68 -9 0 C-5.58777852 -1.01444422 -3.37896371 -0.95821359 0 0 Z " fill="#1C5BA7" transform="translate(56,32)"/>
<path d="M0 0 C0.66 0.33 1.32 0.66 2 1 C1.87431641 2.24716797 1.87431641 2.24716797 1.74609375 3.51953125 C1.59333984 5.14955078 1.59333984 5.14955078 1.4375 6.8125 C1.33308594 7.89144531 1.22867187 8.97039062 1.12109375 10.08203125 C0.82422391 13.06482454 0.82422391 13.06482454 2 16 C0.68 16 -0.64 16 -2 16 C-1.85890014 13.89551062 -1.71195825 11.7914123 -1.5625 9.6875 C-1.48128906 8.51574219 -1.40007813 7.34398438 -1.31640625 6.13671875 C-1 3 -1 3 0 0 Z " fill="#043AB9" transform="translate(12,59)"/>
<path d="M0 0 C6.11774896 -0.49940808 9.02495953 0.75099398 14 4 C14 4.33 14 4.66 14 5 C8.72676192 5.68041782 4.60611289 3.24786337 0 1 C0 0.67 0 0.34 0 0 Z " fill="#2CF1EA" transform="translate(71,13)"/>
<path d="M0 0 C1.65 0 3.3 0 5 0 C4.34 3.3 3.68 6.6 3 10 C2.67 10 2.34 10 2 10 C1.67 7.69 1.34 5.38 1 3 C0.01 3.495 0.01 3.495 -1 4 C-0.67 2.68 -0.34 1.36 0 0 Z " fill="#46982E" transform="translate(33,67)"/>
<path d="M0 0 C0.680625 -0.00515625 1.36125 -0.0103125 2.0625 -0.015625 C4 0.25 4 0.25 7 2.25 C7 2.91 7 3.57 7 4.25 C6.01 3.92 5.02 3.59 4 3.25 C2.10787263 3.02820215 0.21115528 2.84385985 -1.6875 2.6875 C-2.68136719 2.60371094 -3.67523438 2.51992187 -4.69921875 2.43359375 C-5.83810547 2.34271484 -5.83810547 2.34271484 -7 2.25 C-4.00261059 0.25174039 -3.36652492 -0.02550398 0 0 Z " fill="#2AF0EB" transform="translate(62,8.75)"/>
<path d="M0 0 C0.99 0.33 1.98 0.66 3 1 C3 2.32 3 3.64 3 5 C3.99 5.99 4.98 6.98 6 8 C2.7 7.01 -0.6 6.02 -4 5 C-3.01 4.67 -2.02 4.34 -1 4 C-0.26676204 1.98491642 -0.26676204 1.98491642 0 0 Z " fill="#0E3DA1" transform="translate(37,37)"/>
<path d="M0 0 C0.66 0.33 1.32 0.66 2 1 C1.67 2.65 1.34 4.3 1 6 C-2.63 6 -6.26 6 -10 6 C-10 5.67 -10 5.34 -10 5 C-6.7 4.67 -3.4 4.34 0 4 C0 2.68 0 1.36 0 0 Z " fill="#355C95" transform="translate(19,71)"/>
<path d="M0 0 C0 0.66 0 1.32 0 2 C-2.64 2.99 -5.28 3.98 -8 5 C-7.67 3.68 -7.34 2.36 -7 1 C-4.53721199 -0.231394 -2.7204945 -0.07159196 0 0 Z " fill="#199ED6" transform="translate(98,45)"/>
<path d="M0 0 C7.75 0.75 7.75 0.75 10 3 C7.03 3 4.06 3 1 3 C0.67 2.01 0.34 1.02 0 0 Z " fill="#4DE7DE" transform="translate(68,10)"/>
<path d="M0 0 C-2.6875 2.125 -2.6875 2.125 -6 4 C-8.875 3.25 -8.875 3.25 -11 2 C-11 1.67 -11 1.34 -11 1 C-3.375 -1.125 -3.375 -1.125 0 0 Z " fill="#428DB6" transform="translate(69,68)"/>
<path d="M0 0 C-1 1.5625 -1 1.5625 -3 3 C-5.76614782 2.96726452 -8.26030547 2.49404328 -11 2 C-11 1.67 -11 1.34 -11 1 C-7.26562152 0.12132271 -3.83225427 -0.08912219 0 0 Z " fill="#25AEDE" transform="translate(64,28)"/>
<path d="M0 0 C-0.33 0.66 -0.66 1.32 -1 2 C-3.75078884 2.91692961 -5.35948913 3.10886083 -8.1875 3.0625 C-10.0746875 3.0315625 -10.0746875 3.0315625 -12 3 C-8.2391768 -0.7608232 -5.0273023 -0.25136512 0 0 Z " fill="#3F7FAC" transform="translate(42,27)"/>
<path d="M0 0 C0 3 0 3 -1.3125 4.38671875 C-2.875 5.59114583 -4.4375 6.79557292 -6 8 C-5.65120368 4.74456771 -4.97866739 3.98126893 -2.4375 1.75 C-1.633125 1.1725 -0.82875 0.595 0 0 Z " fill="#79C539" transform="translate(100,75)"/>
</svg>
